<svg xmlns="http://www.w3.org/2000/svg" viewBox="0 0 100 100">
  <defs>
    <linearGradient id="goldGrad" x1="0%" y1="0%" x2="100%" y2="100%">
      <stop offset="0%" style="stop-color:#FFD700;stop-opacity:1" />
      <stop offset="50%" style="stop-color:#FF8C00;stop-opacity:1" />
      <stop offset="100%" style="stop-color:#FFD700;stop-opacity:1" />
    </linearGradient>
  </defs>
  <!-- Dark Circle Background for Contrast -->
  <circle cx="50" cy="50" r="48" fill="#1e293b" />
  
  <!-- Outer Flower/Lotus Petals (Simplified) -->
  <path d="M50 10 Q 60 30 80 30 Q 70 50 85 70 Q 60 70 50 90 Q 40 70 15 70 Q 30 50 20 30 Q 40 30 50 10" fill="white" />
  
  <!-- Ganesha Silhouette -->
  <path d="M50 25 
           C 65 25, 75 40, 65 55
           C 65 65, 55 75, 40 75
           C 30 75, 25 65, 35 60
           C 40 58, 45 62, 45 65
           L 43 67
           C 40 68, 38 65, 42 63
           C 48 60, 52 50, 50 45
           C 48 40, 55 35, 50 25 Z" fill="url(#goldGrad)" />
           
  <!-- Eye -->
  <circle cx="58" cy="38" r="2" fill="#1e293b" />
</svg>
